<mxfile host="Electron" modified="2024-05-13T13:19:24.862Z" agent="Mozilla/5.0 (Windows NT 10.0; Win64; x64) AppleWebKit/537.36 (KHTML, like Gecko) draw.io/21.1.2 Chrome/106.0.5249.199 Electron/21.4.3 Safari/537.36" etag="v9zbgX-2GK6r-U0HXv5b" version="21.1.2" type="device">
  <diagram name="Page-1" id="5f0bae14-7c28-e335-631c-24af17079c00">
    <mxGraphModel dx="1219" dy="882" grid="1" gridSize="10" guides="1" tooltips="1" connect="1" arrows="1" fold="1" page="1" pageScale="1" pageWidth="1100" pageHeight="850" background="none" math="0" shadow="0">
      <root>
        <mxCell id="0" />
        <mxCell id="1" parent="0" />
        <mxCell id="39150e848f15840c-2" value="&lt;b style=&quot;font-size: 20px;&quot;&gt;Server&lt;/b&gt;" style="verticalAlign=top;align=center;spacingTop=8;spacingLeft=2;spacingRight=12;shape=cube;size=10;direction=south;fontStyle=4;html=1;rounded=0;shadow=0;comic=0;labelBackgroundColor=none;strokeWidth=1;fontFamily=Verdana;fontSize=20;" parent="1" vertex="1">
          <mxGeometry x="230" y="500" width="840" height="450" as="geometry" />
        </mxCell>
        <mxCell id="bjo24mpFL97Et6b3k-oQ-2" value="&lt;b style=&quot;font-size: 20px;&quot;&gt;Client&lt;/b&gt;" style="verticalAlign=top;align=center;spacingTop=8;spacingLeft=2;spacingRight=12;shape=cube;size=10;direction=south;fontStyle=4;html=1;rounded=0;shadow=0;comic=0;labelBackgroundColor=none;strokeWidth=1;fontFamily=Verdana;fontSize=20;" vertex="1" parent="1">
          <mxGeometry x="230" y="120" width="440" height="320" as="geometry" />
        </mxCell>
        <mxCell id="bjo24mpFL97Et6b3k-oQ-4" value="&lt;b style=&quot;font-size: 20px;&quot;&gt;Docker Environment&lt;/b&gt;" style="verticalAlign=top;align=center;spacingTop=8;spacingLeft=2;spacingRight=12;shape=cube;size=10;direction=south;fontStyle=4;html=1;rounded=0;shadow=0;comic=0;labelBackgroundColor=none;strokeWidth=1;fontFamily=Verdana;fontSize=20;" vertex="1" parent="1">
          <mxGeometry x="400" y="570" width="640" height="370" as="geometry" />
        </mxCell>
        <mxCell id="bjo24mpFL97Et6b3k-oQ-5" value="&lt;b style=&quot;font-size: 20px;&quot;&gt;NGINX&lt;br&gt;Proxy &lt;br&gt;Manager&lt;br&gt;&lt;/b&gt;" style="verticalAlign=top;align=center;spacingTop=8;spacingLeft=2;spacingRight=12;shape=cube;size=10;direction=south;fontStyle=4;html=1;rounded=0;shadow=0;comic=0;labelBackgroundColor=none;strokeWidth=1;fontFamily=Verdana;fontSize=20;" vertex="1" parent="1">
          <mxGeometry x="440" y="650" width="185" height="220" as="geometry" />
        </mxCell>
        <mxCell id="bjo24mpFL97Et6b3k-oQ-6" value="&lt;b style=&quot;font-size: 20px;&quot;&gt;Rust Server&lt;/b&gt;" style="verticalAlign=top;align=center;spacingTop=8;spacingLeft=2;spacingRight=12;shape=cube;size=10;direction=south;fontStyle=4;html=1;rounded=0;shadow=0;comic=0;labelBackgroundColor=none;strokeWidth=1;fontFamily=Verdana;fontSize=20;" vertex="1" parent="1">
          <mxGeometry x="690" y="630" width="320" height="280" as="geometry" />
        </mxCell>
        <mxCell id="bjo24mpFL97Et6b3k-oQ-21" style="edgeStyle=orthogonalEdgeStyle;rounded=0;orthogonalLoop=1;jettySize=auto;html=1;exitX=1;exitY=0.25;exitDx=0;exitDy=0;entryX=0;entryY=0.25;entryDx=0;entryDy=0;startArrow=none;startFill=0;" edge="1" parent="1" source="bjo24mpFL97Et6b3k-oQ-9" target="bjo24mpFL97Et6b3k-oQ-13">
          <mxGeometry relative="1" as="geometry" />
        </mxCell>
        <mxCell id="bjo24mpFL97Et6b3k-oQ-38" value="&lt;font style=&quot;font-size: 18px;&quot;&gt;HTTP&lt;/font&gt;" style="edgeLabel;html=1;align=center;verticalAlign=middle;resizable=0;points=[];" vertex="1" connectable="0" parent="bjo24mpFL97Et6b3k-oQ-21">
          <mxGeometry x="0.2267" y="1" relative="1" as="geometry">
            <mxPoint as="offset" />
          </mxGeometry>
        </mxCell>
        <mxCell id="bjo24mpFL97Et6b3k-oQ-42" style="edgeStyle=orthogonalEdgeStyle;rounded=0;orthogonalLoop=1;jettySize=auto;html=1;exitX=0;exitY=0.75;exitDx=0;exitDy=0;entryX=0.25;entryY=1;entryDx=0;entryDy=0;dashed=1;" edge="1" parent="1" source="bjo24mpFL97Et6b3k-oQ-9" target="bjo24mpFL97Et6b3k-oQ-22">
          <mxGeometry relative="1" as="geometry" />
        </mxCell>
        <mxCell id="bjo24mpFL97Et6b3k-oQ-9" value="&lt;b&gt;&lt;font style=&quot;font-size: 16px;&quot;&gt;IP Routing&lt;/font&gt;&lt;/b&gt;" style="html=1;dropTarget=0;whiteSpace=wrap;" vertex="1" parent="1">
          <mxGeometry x="460" y="750" width="130" height="70" as="geometry" />
        </mxCell>
        <mxCell id="bjo24mpFL97Et6b3k-oQ-10" value="" style="shape=module;jettyWidth=8;jettyHeight=4;" vertex="1" parent="bjo24mpFL97Et6b3k-oQ-9">
          <mxGeometry x="1" width="20" height="20" relative="1" as="geometry">
            <mxPoint x="-27" y="7" as="offset" />
          </mxGeometry>
        </mxCell>
        <mxCell id="bjo24mpFL97Et6b3k-oQ-19" style="edgeStyle=orthogonalEdgeStyle;rounded=0;orthogonalLoop=1;jettySize=auto;html=1;exitX=0.5;exitY=0;exitDx=0;exitDy=0;entryX=0;entryY=0.5;entryDx=0;entryDy=0;startArrow=none;startFill=0;" edge="1" parent="1" source="bjo24mpFL97Et6b3k-oQ-13" target="bjo24mpFL97Et6b3k-oQ-15">
          <mxGeometry relative="1" as="geometry" />
        </mxCell>
        <mxCell id="bjo24mpFL97Et6b3k-oQ-20" style="edgeStyle=orthogonalEdgeStyle;rounded=0;orthogonalLoop=1;jettySize=auto;html=1;exitX=0.5;exitY=1;exitDx=0;exitDy=0;entryX=0;entryY=0.5;entryDx=0;entryDy=0;startArrow=none;startFill=0;" edge="1" parent="1" source="bjo24mpFL97Et6b3k-oQ-13" target="bjo24mpFL97Et6b3k-oQ-17">
          <mxGeometry relative="1" as="geometry" />
        </mxCell>
        <mxCell id="bjo24mpFL97Et6b3k-oQ-41" style="edgeStyle=orthogonalEdgeStyle;rounded=0;orthogonalLoop=1;jettySize=auto;html=1;exitX=0;exitY=0.75;exitDx=0;exitDy=0;entryX=1;entryY=0.75;entryDx=0;entryDy=0;dashed=1;" edge="1" parent="1" source="bjo24mpFL97Et6b3k-oQ-13" target="bjo24mpFL97Et6b3k-oQ-9">
          <mxGeometry relative="1" as="geometry" />
        </mxCell>
        <mxCell id="bjo24mpFL97Et6b3k-oQ-13" value="&lt;span style=&quot;font-size: 16px;&quot;&gt;&lt;b&gt;Internes Routing&amp;nbsp;&lt;/b&gt;&lt;/span&gt;" style="html=1;dropTarget=0;whiteSpace=wrap;" vertex="1" parent="1">
          <mxGeometry x="700" y="750" width="130" height="70" as="geometry" />
        </mxCell>
        <mxCell id="bjo24mpFL97Et6b3k-oQ-14" value="" style="shape=module;jettyWidth=8;jettyHeight=4;" vertex="1" parent="bjo24mpFL97Et6b3k-oQ-13">
          <mxGeometry x="1" width="20" height="20" relative="1" as="geometry">
            <mxPoint x="-27" y="7" as="offset" />
          </mxGeometry>
        </mxCell>
        <mxCell id="bjo24mpFL97Et6b3k-oQ-39" style="edgeStyle=orthogonalEdgeStyle;rounded=0;orthogonalLoop=1;jettySize=auto;html=1;exitX=0.5;exitY=0;exitDx=0;exitDy=0;entryX=0.25;entryY=0;entryDx=0;entryDy=0;dashed=1;" edge="1" parent="1" source="bjo24mpFL97Et6b3k-oQ-15" target="bjo24mpFL97Et6b3k-oQ-13">
          <mxGeometry relative="1" as="geometry">
            <Array as="points">
              <mxPoint x="915" y="680" />
              <mxPoint x="733" y="680" />
            </Array>
          </mxGeometry>
        </mxCell>
        <mxCell id="bjo24mpFL97Et6b3k-oQ-15" value="&lt;span style=&quot;font-size: 16px;&quot;&gt;&lt;b&gt;LLM&lt;/b&gt;&lt;/span&gt;" style="html=1;dropTarget=0;whiteSpace=wrap;" vertex="1" parent="1">
          <mxGeometry x="850" y="690" width="130" height="70" as="geometry" />
        </mxCell>
        <mxCell id="bjo24mpFL97Et6b3k-oQ-16" value="" style="shape=module;jettyWidth=8;jettyHeight=4;" vertex="1" parent="bjo24mpFL97Et6b3k-oQ-15">
          <mxGeometry x="1" width="20" height="20" relative="1" as="geometry">
            <mxPoint x="-27" y="7" as="offset" />
          </mxGeometry>
        </mxCell>
        <mxCell id="bjo24mpFL97Et6b3k-oQ-40" style="edgeStyle=orthogonalEdgeStyle;rounded=0;orthogonalLoop=1;jettySize=auto;html=1;exitX=0.5;exitY=1;exitDx=0;exitDy=0;entryX=0.25;entryY=1;entryDx=0;entryDy=0;dashed=1;" edge="1" parent="1" source="bjo24mpFL97Et6b3k-oQ-17" target="bjo24mpFL97Et6b3k-oQ-13">
          <mxGeometry relative="1" as="geometry">
            <Array as="points">
              <mxPoint x="915" y="890" />
              <mxPoint x="733" y="890" />
            </Array>
          </mxGeometry>
        </mxCell>
        <mxCell id="bjo24mpFL97Et6b3k-oQ-17" value="&lt;span style=&quot;font-size: 16px;&quot;&gt;&lt;b&gt;Datenbank&lt;/b&gt;&lt;/span&gt;" style="html=1;dropTarget=0;whiteSpace=wrap;" vertex="1" parent="1">
          <mxGeometry x="850" y="810" width="130" height="70" as="geometry" />
        </mxCell>
        <mxCell id="bjo24mpFL97Et6b3k-oQ-18" value="" style="shape=module;jettyWidth=8;jettyHeight=4;" vertex="1" parent="bjo24mpFL97Et6b3k-oQ-17">
          <mxGeometry x="1" width="20" height="20" relative="1" as="geometry">
            <mxPoint x="-27" y="7" as="offset" />
          </mxGeometry>
        </mxCell>
        <mxCell id="bjo24mpFL97Et6b3k-oQ-24" style="edgeStyle=orthogonalEdgeStyle;rounded=0;orthogonalLoop=1;jettySize=auto;html=1;exitX=0.75;exitY=1;exitDx=0;exitDy=0;entryX=0;entryY=0.25;entryDx=0;entryDy=0;" edge="1" parent="1" source="bjo24mpFL97Et6b3k-oQ-22" target="bjo24mpFL97Et6b3k-oQ-9">
          <mxGeometry relative="1" as="geometry" />
        </mxCell>
        <mxCell id="bjo24mpFL97Et6b3k-oQ-37" value="&lt;font style=&quot;font-size: 18px;&quot;&gt;HTTPS&lt;/font&gt;" style="edgeLabel;html=1;align=center;verticalAlign=middle;resizable=0;points=[];" vertex="1" connectable="0" parent="bjo24mpFL97Et6b3k-oQ-24">
          <mxGeometry x="-0.2168" y="1" relative="1" as="geometry">
            <mxPoint as="offset" />
          </mxGeometry>
        </mxCell>
        <mxCell id="bjo24mpFL97Et6b3k-oQ-22" value="&lt;span style=&quot;font-size: 16px;&quot;&gt;&lt;b&gt;PC Router&lt;/b&gt;&lt;/span&gt;" style="html=1;dropTarget=0;whiteSpace=wrap;" vertex="1" parent="1">
          <mxGeometry x="240" y="560" width="130" height="70" as="geometry" />
        </mxCell>
        <mxCell id="bjo24mpFL97Et6b3k-oQ-23" value="" style="shape=module;jettyWidth=8;jettyHeight=4;" vertex="1" parent="bjo24mpFL97Et6b3k-oQ-22">
          <mxGeometry x="1" width="20" height="20" relative="1" as="geometry">
            <mxPoint x="-27" y="7" as="offset" />
          </mxGeometry>
        </mxCell>
        <mxCell id="bjo24mpFL97Et6b3k-oQ-27" value="&lt;b style=&quot;font-size: 20px;&quot;&gt;Browser&lt;/b&gt;" style="verticalAlign=top;align=center;spacingTop=8;spacingLeft=2;spacingRight=12;shape=cube;size=10;direction=south;fontStyle=4;html=1;rounded=0;shadow=0;comic=0;labelBackgroundColor=none;strokeWidth=1;fontFamily=Verdana;fontSize=20;" vertex="1" parent="1">
          <mxGeometry x="260" y="170" width="380" height="250" as="geometry" />
        </mxCell>
        <mxCell id="bjo24mpFL97Et6b3k-oQ-28" value="&lt;b style=&quot;font-size: 20px;&quot;&gt;Tampermonkey&lt;/b&gt;" style="verticalAlign=top;align=center;spacingTop=8;spacingLeft=2;spacingRight=12;shape=cube;size=10;direction=south;fontStyle=4;html=1;rounded=0;shadow=0;comic=0;labelBackgroundColor=none;strokeWidth=1;fontFamily=Verdana;fontSize=20;" vertex="1" parent="1">
          <mxGeometry x="290" y="230" width="310" height="170" as="geometry" />
        </mxCell>
        <mxCell id="bjo24mpFL97Et6b3k-oQ-34" style="edgeStyle=orthogonalEdgeStyle;rounded=0;orthogonalLoop=1;jettySize=auto;html=1;exitX=0.75;exitY=1;exitDx=0;exitDy=0;entryX=0.75;entryY=0;entryDx=0;entryDy=0;" edge="1" parent="1" source="bjo24mpFL97Et6b3k-oQ-29" target="bjo24mpFL97Et6b3k-oQ-22">
          <mxGeometry relative="1" as="geometry">
            <Array as="points">
              <mxPoint x="477" y="480" />
              <mxPoint x="337" y="480" />
            </Array>
          </mxGeometry>
        </mxCell>
        <mxCell id="bjo24mpFL97Et6b3k-oQ-35" value="&lt;font style=&quot;font-size: 18px;&quot;&gt;HTTPS&lt;/font&gt;" style="edgeLabel;html=1;align=center;verticalAlign=middle;resizable=0;points=[];" vertex="1" connectable="0" parent="bjo24mpFL97Et6b3k-oQ-34">
          <mxGeometry x="-0.1807" y="-5" relative="1" as="geometry">
            <mxPoint x="-10" as="offset" />
          </mxGeometry>
        </mxCell>
        <mxCell id="bjo24mpFL97Et6b3k-oQ-44" style="edgeStyle=orthogonalEdgeStyle;rounded=0;orthogonalLoop=1;jettySize=auto;html=1;exitX=0.25;exitY=1;exitDx=0;exitDy=0;entryX=0.25;entryY=0;entryDx=0;entryDy=0;endArrow=none;endFill=0;startArrow=classic;startFill=1;dashed=1;" edge="1" parent="1" source="bjo24mpFL97Et6b3k-oQ-29" target="bjo24mpFL97Et6b3k-oQ-22">
          <mxGeometry relative="1" as="geometry">
            <Array as="points">
              <mxPoint x="413" y="460" />
              <mxPoint x="273" y="460" />
            </Array>
          </mxGeometry>
        </mxCell>
        <mxCell id="bjo24mpFL97Et6b3k-oQ-29" value="&lt;span style=&quot;font-size: 16px;&quot;&gt;&lt;b&gt;ChatUI Script&lt;/b&gt;&lt;/span&gt;" style="html=1;dropTarget=0;whiteSpace=wrap;" vertex="1" parent="1">
          <mxGeometry x="380" y="300" width="130" height="70" as="geometry" />
        </mxCell>
        <mxCell id="bjo24mpFL97Et6b3k-oQ-30" value="" style="shape=module;jettyWidth=8;jettyHeight=4;" vertex="1" parent="bjo24mpFL97Et6b3k-oQ-29">
          <mxGeometry x="1" width="20" height="20" relative="1" as="geometry">
            <mxPoint x="-27" y="7" as="offset" />
          </mxGeometry>
        </mxCell>
      </root>
    </mxGraphModel>
  </diagram>
</mxfile>
